<svg version="1.1" id="Layer_1" xmlns="http://www.w3.org/2000/svg" xmlns:xlink="http://www.w3.org/1999/xlink" x="0px" y="0px"
	 viewBox="0 0 1600 250" style="enable-background:new 0 0 1600 250;" xml:space="preserve">
<style type="text/css">
	.st0{fill:none;}
	.st1{fill:url(#SVGID_1_);}
	.st2{fill:url(#SVGID_2_);}
	.st3{fill:url(#SVGID_3_);}
	.st4{fill:url(#SVGID_4_);}
	.st5{fill:url(#SVGID_5_);}
	.st6{fill:url(#SVGID_6_);}
	.st7{fill:url(#SVGID_7_);}
	.st8{fill:url(#SVGID_8_);}
	.st9{fill:url(#SVGID_9_);}
	.st10{fill:url(#SVGID_10_);}
	.st11{fill:url(#SVGID_11_);}
	.st12{fill:url(#SVGID_12_);}
	.st13{fill:url(#SVGID_13_);}
	.st14{fill:url(#SVGID_14_);}
	.st15{fill:url(#SVGID_15_);}
	.st16{fill:url(#SVGID_16_);}
	.st17{fill:url(#SVGID_17_);}
	.st18{fill:url(#SVGID_18_);}
	.st19{fill:url(#SVGID_19_);}
	.st20{fill:url(#SVGID_20_);}
	.st21{fill:url(#SVGID_21_);}
	.st22{fill:url(#SVGID_22_);}
	.st23{fill:url(#SVGID_23_);}
	.st24{fill:url(#SVGID_24_);}
	.st25{fill:url(#SVGID_25_);}
	.st26{opacity:0.2;fill:#FFFFFF;enable-background:new    ;}
	.st27{opacity:0.3;fill:#FFFFFF;enable-background:new    ;}
	.st28{opacity:0.77;fill:#FFFFFF;enable-background:new    ;}
	.st29{fill:#FFFFFF;}
	.st30{fill:#231F20;}
	.st31{fill-rule:evenodd;clip-rule:evenodd;fill:#231F20;}
	.st32{fill-rule:evenodd;clip-rule:evenodd;fill:#0073A2;}
	.st33{fill:#0073A2;}
</style>
<symbol  id="New_Symbol_3" viewBox="-119.5 -138 239 276.1">
	<g id="background_2_">
		<g>
			<path class="st0" d="M112.5-65L112.5-65l0,41.2v60v28.6L93.7,75.8L63,93.5L0.1,129.9l-44.5-25.7l-68.1-39.3V40V6.9v-71.8
				l12.5-7.2l38.8-22.4l42.2-24.4l19.1-11l47.3,27.3l36.1,20.8L112.5-65z M0.1-121.7l-11.5,6.7l-46.9,27.1l-43.1,24.8l-4,2.3v22.5
				v78.6v20.5l65.3,37.6L0,121.7l56.9-32.8l33.2-19.2l15.4-8.8V33.5v-52.3V-61h0L69.2-81.8L50.5-92.6L0.1-121.7z"/>
			
				<linearGradient id="SVGID_1_" gradientUnits="userSpaceOnUse" x1="7802.1992" y1="-8510.8604" x2="7802.6211" y2="-8510.4385" gradientTransform="matrix(637 0 0 -414 -4970169 -3523302.25)">
				<stop  offset="0" style="stop-color:#00A5B1"/>
				<stop  offset="1" style="stop-color:#00A1AE"/>
			</linearGradient>
			<polygon class="st1" points="56.9,88.8 0.1,121.7 -40.1,98.4 -0.2,44.4 			"/>
			
				<linearGradient id="SVGID_2_" gradientUnits="userSpaceOnUse" x1="7802.2285" y1="-8510.8896" x2="7802.6504" y2="-8510.4678" gradientTransform="matrix(637 0 0 -414 -4970169 -3523302.25)">
				<stop  offset="0" style="stop-color:#00A5B1"/>
				<stop  offset="1" style="stop-color:#00A1AE"/>
			</linearGradient>
			<polygon class="st2" points="0.1,129.9 63,93.5 69,98.2 0.1,138 -48.6,109.9 -44.4,104.2 			"/>
			
				<linearGradient id="SVGID_3_" gradientUnits="userSpaceOnUse" x1="7788.4004" y1="-8510.3242" x2="7788.8223" y2="-8509.9014" gradientTransform="matrix(306 0 0 -425 -2383405.5 -3616703.5)">
				<stop  offset="0" style="stop-color:#008591"/>
				<stop  offset="1" style="stop-color:#00A3B0"/>
			</linearGradient>
			<polygon class="st3" points="-40.2,98.4 -105.5,60.8 -105.5,40.3 -0.4,44.4 			"/>
			
				<linearGradient id="SVGID_4_" gradientUnits="userSpaceOnUse" x1="7788.3896" y1="-8510.3125" x2="7788.8115" y2="-8509.8906" gradientTransform="matrix(306 0 0 -425 -2383405.5 -3616703.5)">
				<stop  offset="0" style="stop-color:#008591"/>
				<stop  offset="1" style="stop-color:#00A3B0"/>
			</linearGradient>
			<polygon class="st4" points="-112.5,40 -112.5,64.9 -44.4,104.2 -48.7,109.9 -119.5,69 -119.5,69 -117.6,39.8 			"/>
			
				<linearGradient id="SVGID_5_" gradientUnits="userSpaceOnUse" x1="7785.8164" y1="-8509.1621" x2="7786.2393" y2="-8508.7402" gradientTransform="matrix(278 0 0 -469 -2164557.25 -3990723.25)">
				<stop  offset="0" style="stop-color:#008D99"/>
				<stop  offset="1" style="stop-color:#00A5B2"/>
			</linearGradient>
			<polygon class="st5" points="-105.5,40.3 -105.5,-38.3 -101.5,-63.1 -58.4,-87.9 -0.3,44.4 			"/>
			
				<linearGradient id="SVGID_6_" gradientUnits="userSpaceOnUse" x1="7785.6812" y1="-8509.0264" x2="7786.1035" y2="-8508.6045" gradientTransform="matrix(278 0 0 -469 -2164557.25 -3990723.25)">
				<stop  offset="0" style="stop-color:#008D99"/>
				<stop  offset="1" style="stop-color:#00A5B2"/>
			</linearGradient>
			<polygon class="st6" points="-100,-72.1 -98.6,-81.1 -64.1,-101 -61.2,-94.5 			"/>
			
				<linearGradient id="SVGID_7_" gradientUnits="userSpaceOnUse" x1="7785.7407" y1="-8509.0869" x2="7786.1631" y2="-8508.6641" gradientTransform="matrix(278 0 0 -469 -2164557.25 -3990723.25)">
				<stop  offset="0" style="stop-color:#008D99"/>
				<stop  offset="1" style="stop-color:#00A5B2"/>
			</linearGradient>
			<polygon class="st7" points="-117.7,39.8 -112.5,6.9 -112.5,40 			"/>
			
				<linearGradient id="SVGID_8_" gradientUnits="userSpaceOnUse" x1="7790.5493" y1="-8509.1162" x2="7790.9712" y2="-8508.6934" gradientTransform="matrix(334 0 0 -469 -2602125.25 -3990723.25)">
				<stop  offset="0" style="stop-color:#008994"/>
				<stop  offset="1" style="stop-color:#00A1AD"/>
			</linearGradient>
			<polygon class="st8" points="-0.2,44.4 -58.4,-87.9 -11.5,-115 53.8,-81.8 			"/>
			
				<linearGradient id="SVGID_9_" gradientUnits="userSpaceOnUse" x1="7790.437" y1="-8509.0029" x2="7790.8589" y2="-8508.5811" gradientTransform="matrix(334 0 0 -469 -2602125.25 -3990723.25)">
				<stop  offset="0" style="stop-color:#008994"/>
				<stop  offset="1" style="stop-color:#00A1AD"/>
			</linearGradient>
			<polygon class="st9" points="-61.2,-94.5 -64.1,-101 -26.6,-122.7 -19,-118.8 			"/>
			
				<linearGradient id="SVGID_10_" gradientUnits="userSpaceOnUse" x1="7790.6748" y1="-8512.7344" x2="7791.0972" y2="-8512.3125" gradientTransform="matrix(334 0 0 -401 -2602125.25 -3413631.5)">
				<stop  offset="0" style="stop-color:#00AAB8"/>
				<stop  offset="1" style="stop-color:#01A8B5"/>
			</linearGradient>
			<polygon class="st10" points="-11.5,-115 0.1,-121.7 50.5,-92.5 53.8,-81.8 			"/>
			
				<linearGradient id="SVGID_11_" gradientUnits="userSpaceOnUse" x1="7790.6411" y1="-8512.7002" x2="7791.063" y2="-8512.2783" gradientTransform="matrix(334 0 0 -401 -2602125.25 -3413631.5)">
				<stop  offset="0" style="stop-color:#00AAB8"/>
				<stop  offset="1" style="stop-color:#01A8B5"/>
			</linearGradient>
			<polygon class="st11" points="47.4,-102.5 0.1,-129.9 -19,-118.8 -26.6,-122.7 0.1,-138 44.3,-112.5 			"/>
			
				<linearGradient id="SVGID_12_" gradientUnits="userSpaceOnUse" x1="7761.8496" y1="-8500.4219" x2="7762.272" y2="-8500" gradientTransform="matrix(151 0 0 -888 -1172204 -7548058)">
				<stop  offset="0" style="stop-color:#009AA6"/>
				<stop  offset="1" style="stop-color:#01A1AE"/>
			</linearGradient>
			<polygon class="st12" points="-119.5,69 -119.5,33.9 -117.6,39.8 			"/>
			
				<linearGradient id="SVGID_13_" gradientUnits="userSpaceOnUse" x1="7779.0166" y1="-8509.4297" x2="7779.439" y2="-8509.0068" gradientTransform="matrix(223 0 0 -463 -1734883.75 -3939788)">
				<stop  offset="0" style="stop-color:#0196A2"/>
				<stop  offset="1" style="stop-color:#047F88"/>
			</linearGradient>
			<polygon class="st13" points="-112.5,-64.9 -112.5,6.9 -117.6,39.8 -119.5,33.9 -119.5,-69 -98.6,-81.1 -100,-72.1 			"/>
			
				<linearGradient id="SVGID_14_" gradientUnits="userSpaceOnUse" x1="7779.0078" y1="-8509.4209" x2="7779.4302" y2="-8508.999" gradientTransform="matrix(223 0 0 -463 -1734883.75 -3939788)">
				<stop  offset="0" style="stop-color:#0196A2"/>
				<stop  offset="1" style="stop-color:#047F88"/>
			</linearGradient>
			<polygon class="st14" points="-105.5,-60.8 -101.6,-63.1 -105.5,-38.3 			"/>
			
				<linearGradient id="SVGID_15_" gradientUnits="userSpaceOnUse" x1="7796.9077" y1="-8512.5947" x2="7797.3296" y2="-8512.1729" gradientTransform="matrix(457 0 0 -402 -3563159.5 -3422121.5)">
				<stop  offset="0" style="stop-color:#00939D"/>
				<stop  offset="1" style="stop-color:#03B9C6"/>
			</linearGradient>
			<polygon class="st15" points="47.4,-102.5 44.3,-112.5 97.8,-81.6 83.5,-81.7 			"/>
			
				<linearGradient id="SVGID_16_" gradientUnits="userSpaceOnUse" x1="7796.9077" y1="-8512.5947" x2="7797.3296" y2="-8512.1729" gradientTransform="matrix(457 0 0 -402 -3563159.5 -3422121.5)">
				<stop  offset="0" style="stop-color:#00939D"/>
				<stop  offset="1" style="stop-color:#03B9C6"/>
			</linearGradient>
			<polygon class="st16" points="53.8,-81.8 50.5,-92.5 69.2,-81.7 			"/>
			
				<linearGradient id="SVGID_17_" gradientUnits="userSpaceOnUse" x1="7754.5615" y1="-8519.4395" x2="7754.9834" y2="-8519.0176" gradientTransform="matrix(137 0 0 -299 -1062365 -2547245.75)">
				<stop  offset="0" style="stop-color:#14BCC9"/>
				<stop  offset="1" style="stop-color:#08BCCB"/>
			</linearGradient>
			<polygon class="st17" points="-0.2,44.4 53.8,-81.8 57.6,14.9 			"/>
			
				<linearGradient id="SVGID_18_" gradientUnits="userSpaceOnUse" x1="7789.8735" y1="-8516.4082" x2="7790.2959" y2="-8515.9854" gradientTransform="matrix(331 0 0 -327 -2578474.25 -2784738)">
				<stop  offset="0" style="stop-color:#008B93"/>
				<stop  offset="1" style="stop-color:#00A1AD"/>
			</linearGradient>
			<polygon class="st18" points="57.6,14.9 90.1,69.7 56.9,88.8 -0.2,44.4 			"/>
			
				<linearGradient id="SVGID_19_" gradientUnits="userSpaceOnUse" x1="7789.9736" y1="-8516.5078" x2="7790.396" y2="-8516.0859" gradientTransform="matrix(331 0 0 -327 -2578474.25 -2784738)">
				<stop  offset="0" style="stop-color:#008B93"/>
				<stop  offset="1" style="stop-color:#00A1AD"/>
			</linearGradient>
			<polygon class="st19" points="93.7,75.8 97.3,81.9 69,98.2 63,93.5 			"/>
			
				<linearGradient id="SVGID_20_" gradientUnits="userSpaceOnUse" x1="7789.7993" y1="-8528.1172" x2="7790.2207" y2="-8527.6953" gradientTransform="matrix(333 0 0 -229 -2593976.25 -1952942.625)">
				<stop  offset="0" style="stop-color:#05B6C5"/>
				<stop  offset="1" style="stop-color:#15BDCC"/>
			</linearGradient>
			<polygon class="st20" points="112.5,-65 112.5,-65 83.5,-81.7 97.7,-81.6 119.5,-69 119.5,-28.7 112.5,-23.7 			"/>
			
				<linearGradient id="SVGID_21_" gradientUnits="userSpaceOnUse" x1="7789.7778" y1="-8528.0957" x2="7790.2002" y2="-8527.6729" gradientTransform="matrix(333 0 0 -229 -2593976.25 -1952942.625)">
				<stop  offset="0" style="stop-color:#05B6C5"/>
				<stop  offset="1" style="stop-color:#15BDCC"/>
			</linearGradient>
			<polygon class="st21" points="53.8,-81.8 69.2,-81.8 105.5,-61 105.5,-61 105.5,-18.7 57.7,14.9 			"/>
			
				<linearGradient id="SVGID_22_" gradientUnits="userSpaceOnUse" x1="7781.9194" y1="-8516.3574" x2="7782.3418" y2="-8515.9355" gradientTransform="matrix(254 0 0 -327 -1976582.625 -2784738)">
				<stop  offset="0" style="stop-color:#00AEBC"/>
				<stop  offset="1" style="stop-color:#00B5C1"/>
			</linearGradient>
			<polygon class="st22" points="105.5,33.5 105.5,60.8 90.1,69.7 57.7,14.9 			"/>
			
				<linearGradient id="SVGID_23_" gradientUnits="userSpaceOnUse" x1="7782.0098" y1="-8516.4482" x2="7782.4316" y2="-8516.0264" gradientTransform="matrix(254 0 0 -327 -1976582.625 -2784738)">
				<stop  offset="0" style="stop-color:#00AEBC"/>
				<stop  offset="1" style="stop-color:#00B5C1"/>
			</linearGradient>
			<polygon class="st23" points="112.5,64.9 112.5,36.3 119.5,39.1 119.5,69 97.3,81.9 93.7,75.8 			"/>
			
				<linearGradient id="SVGID_24_" gradientUnits="userSpaceOnUse" x1="7789.1538" y1="-8516.877" x2="7789.5762" y2="-8516.4541" gradientTransform="matrix(324 0 0 -327 -2523632.25 -2784966)">
				<stop  offset="0" style="stop-color:#4AC4DA"/>
				<stop  offset="1" style="stop-color:#36C0D3"/>
			</linearGradient>
			<polygon class="st24" points="105.5,-18.7 105.5,33.5 57.7,14.9 			"/>
			
				<linearGradient id="SVGID_25_" gradientUnits="userSpaceOnUse" x1="7789.1816" y1="-8516.9043" x2="7789.603" y2="-8516.4824" gradientTransform="matrix(324 0 0 -327 -2523632.25 -2784966)">
				<stop  offset="0" style="stop-color:#4AC4DA"/>
				<stop  offset="1" style="stop-color:#36C0D3"/>
			</linearGradient>
			<polygon class="st25" points="112.5,-23.7 119.5,-28.7 119.5,39.1 112.5,36.3 			"/>
		</g>
	</g>
	<g id="Lines-3_2_">
		<g>
			<polygon class="st26" points="-43.8,104.5 -48,110.3 -49.2,109.6 -45,103.8 			"/>
			<polygon class="st26" points="-118.9,69.4 -119.5,69 -119.5,58.4 -118.3,40.5 -118.4,40.5 -118.3,39.9 -119.5,36.2 -119.5,31.7 
				-117.9,36.8 -112.5,2.4 -112.5,11.4 -116.9,39.1 -112.5,39.3 -112.5,40.7 -117,40.5 			"/>
			<polygon class="st26" points="-105.5,-42.8 -102.3,-62.6 -100.8,-63.5 -105.5,-33.8 			"/>
			<polygon class="st26" points="-100.8,-71.6 -99.3,-80.7 -97.8,-81.6 -99.2,-72.5 			"/>
			<polygon class="st26" points="97.9,81.5 96.7,82.2 93.1,76.1 94.3,75.4 			"/>
			<polygon class="st26" points="69.7,97.8 68.4,98.6 62.3,93.9 63.6,93.1 			"/>
			<path class="st26" d="M59.3,16.3l17.1,28.8l14.4,24.2L89.5,70L57.4,15.9L57,16.2l0-0.2l-29,14.8L1.1,44.6l56.5,43.9l-1.3,0.8
				L0.1,45.6l-0.3,0.6l-0.2-0.4l-39.2,53l-1.2-0.7l39.1-53L-105.5,41v-1.4l104.1,4.1l-28.1-64.2L-59-87.6l1.2-0.7l57.5,131
				L52.9-81.4l-65.1-33.1l1.4-0.8l63.4,32.3l-3.1-9.9l1.8,1l2.5,8.2l0.5-1.1l0.1,2.4l13.5,0l2.4,1.4l-15.7,0l0.2,0.7l-0.4-0.2
				l3.7,94.2l47.2-33.2v1.7L81.2-0.8l-22,15.5l46.4,18.1v1.5l-15.9-6.2L59.3,16.3z M53.2-78.6L1.2,42.9l26.5-13.6l28.9-14.8L56,13.5
				l0.9,0.3L53.2-78.6z"/>
			<polygon class="st26" points="82.3,-82.4 96.5,-82.3 99,-80.9 84.7,-81 			"/>
			<polygon class="st26" points="112.5,-24.6 119.5,-29.6 119.5,-27.9 112.5,-22.9 			"/>
			<polygon class="st26" points="112.5,37 112.5,35.5 119.5,38.3 119.5,39.8 			"/>
			<polygon class="st26" points="-64.7,-100.7 -63.5,-101.4 -60.6,-94.8 -61.8,-94.1 			"/>
			<polygon class="st26" points="43.4,-113 45.2,-112 48.3,-102 46.5,-103 			"/>
			<polygon class="st26" points="-27.3,-122.3 -25.8,-123.1 -18.3,-119.3 -19.7,-118.4 			"/>
		</g>
	</g>
	<g id="Lines-2_2_">
		<path class="st26" d="M-119.5-15.6v1.8l7,6v-1.8L-119.5-15.6z M119.5,57.3v1.6l-7,4.1v-1.6l0,0L119.5,57.3z M17.4,111.6l-3,1.7
			L-9.8,116l-2.1-1.2L17.4,111.6z M-119.5-64.3v-2.5l2.6-3.8l2.8-1.6L-119.5-64.3z M28.6,121.6l-0.6-7.8l2.2-1.3l3.9,6l-1.2,0.7
			l-3.4-5.3l0.5,7L28.6,121.6z M119.5,1.8l-7-0.9v-1.4l7,0.9V1.8z M-91.6-76.9l29.7-25.3l6.6-3.8l-29.7,25.3L-91.6-76.9z
			 M-21.8,117.2l-12,1.3l-2.1-1.2l12-1.3L-21.8,117.2z M-112.5-59.2v1.8l-7,6.1v-1.8l6.2-5.3L-112.5-59.2z M-105.5-1.7v-1.8
			L24.9,107.3l-1.2,0.7l-84.9-72.2L-105.5-1.7z M-36-20.2L105.5-1.4V0l-9.8-1.3l-201.2-26.6v-1.4L-36-20.2z M-119.5-31.2l7,0.9v1.4
			l-7-0.9V-31.2z"/>
	</g>
	<g id="Lines-1_2_">
		<g>
			<polygon class="st27" points="-119.5,-33.1 -119.5,-38.3 -115.6,-52.5 -117.9,-50.6 -116.1,-53.2 -119.5,-52 -119.5,-53.5 
				-117.5,-54.2 -119.5,-54.4 -119.5,-55.8 -116.5,-55.5 -116.6,-55.6 -114.8,-55.3 -114.7,-55.8 -114.5,-55.6 -112.5,-58.5 
				-112.5,-55.2 -112.7,-55.1 -112.5,-55.1 -112.5,-52 -114,-53.3 			"/>
			<polygon class="st27" points="-17.9,127.7 -39.2,115.4 -96.5,77.8 -119.5,62.7 -119.5,61.1 -97.5,75.5 			"/>
			<polygon class="st27" points="0.1,138 -0.6,137.7 0.6,137.8 			"/>
			<polygon class="st27" points="103.6,78.3 99.8,80.5 78,84.8 81.8,82.6 			"/>
			<polygon class="st27" points="-119.5,43.8 -112.5,43 -112.5,44.4 -119.5,45.2 			"/>
			<polygon class="st27" points="55,106.3 53.5,107.2 45.8,103.4 47.3,102.6 			"/>
			<polygon class="st27" points="-2.6,136.2 3.2,128 6.1,126.4 -1.5,137.1 -4,135.7 -4.7,127.1 -3.3,127.9 			"/>
			<polygon class="st27" points="112.5,-8.5 119.5,-1.7 119.5,0.3 112.5,-6.6 			"/>
			<polygon class="st27" points="112.5,43.4 112.5,38.6 119.5,62.2 119.5,67 			"/>
			<polygon class="st27" points="112.5,-43.8 119.5,-49.2 119.5,-47.4 112.5,-42 			"/>
			<polygon class="st27" points="-84,-81.3 -54.3,-106.7 -47.7,-110.5 -77.4,-85.2 			"/>
			<polygon class="st27" points="-105.1,-69.1 -95.8,-82.7 -93,-84.3 -102.3,-70.7 			"/>
			<path class="st27" d="M29.4,93.1L60.1,87l-3.8,2.2l-26,5.2l9.3,4.5l-1.5,0.8L28.4,95l-0.2,0.5l-0.1-0.1l-12.1,17.1l-2.9,1.7
				l14-19.8l-1.1-0.5l1-0.2L8.6,65.2l-19.1-29.6l6.6,83.7l-1.5-0.8l-6.8-84.8l-93.3,10v-1.4l92.3-9.9l-52.3-44.5L-105.5-46v-1.8
				l93.1,79.1l0-1.1l1.2,1.8L38.3,3.2l51.6-30l-43-5.7l-152.4-20.2v-1.4l99.6,13.2l96.8,12.8L73.4-79.3l1.9,1.1L92.1-29l0-0.1
				l0.2,0.7l13.1-9.9v1.8l-11.7,8.9l0.3,0l-0.9,0.6l12.3,11.8v1.9l-12-11.5l12,39.9v4.8L91.9-25.4L29.4,93.1z M-10.3,33l0.5,0.4
				l-0.5,0.1L9.3,63.7L28,92.7L90.2-25.4L-10.3,33z"/>
			<polygon class="st27" points="66.5,-99.7 68.3,-98.6 71.8,-88.4 70,-89.5 			"/>
		</g>
	</g>
	<g id="Circules_2_">
		<path class="st28" d="M-119.5-51.6c0.6,0.4,1.2,0.6,1.9,0.6c2,0,3.6-1.6,3.6-3.5c0-1.9-1.6-3.5-3.6-3.5c-0.7,0-1.4,0.2-1.9,0.6
			V-51.6z M-5.2,135c0.6-0.4,1.3-0.7,2.1-0.7c2,0,3.6,1.6,3.6,3.5c0,0,0,0,0,0L0.1,138L-5.2,135z M-15,33.4c0-1.9,1.6-3.5,3.6-3.5
			s3.6,1.6,3.6,3.5s-1.6,3.5-3.6,3.5S-15,35.4-15,33.4z M56.5-82.2c0,2.6-2.2,4.8-4.9,4.8s-4.9-2.1-4.9-4.8s2.2-4.8,4.9-4.8
			S56.5-84.9,56.5-82.2z M95.5-27.2c0,1.9-1.6,3.5-3.6,3.5s-3.6-1.6-3.6-3.5s1.6-3.5,3.6-3.5S95.5-29.2,95.5-27.2z"/>
	</g>
	<g id="cat_face_2_">
		<g>
			<g>
				<g>
					<path class="st29" d="M-48-47.1l4.4-18.3l0.4-1.9l0.3,1.9l4.7,18.6h4.8l-7.1-25.3h-4.9l-5,18.6l-0.3,1.5l-0.3-1.4l-5-18.7h-5
						l-7.2,25.3h4.8l4.7-18.6l0.3-1.9l0.4,1.9l4.5,18.3L-48-47.1L-48-47.1z"/>
					<path class="st29" d="M-27.9-66.6l-1.8-5.5h-4.9l9.1,25.3h4.9l9.1-25.3h-5.1l-6.3,18.9l-0.3,1.3l-0.3-1.4l-3-9.1l-0.4-0.7
						l0.5,0.1h2.7c0.5,0,0.9-0.2,1.3-0.4s0.7-0.5,1-0.8c0.3-0.4,0.5-0.8,0.7-1.1c0.2-0.5,0.4-0.8,0.5-1.2L-27.9-66.6L-27.9-66.6z"/>
					<path class="st29" d="M-0.9-60.3v-11.8h-4.8v11.2l-8.7,14.1H-9L-0.9-60.3z M2.2-46.8h5.4L0.2-59c-0.2,0.3-0.5,0.7-0.8,1.1
						c-0.2,0.5-0.5,1-0.7,1.5c-0.2,0.5-0.2,1.1-0.3,1.8c0,0.6,0.2,1.2,0.5,1.8L2.2-46.8z"/>
					<path class="st29" d="M24.4-54c0-1.1-0.3-2.3-0.9-3.5s-1.4-2.5-2.3-3.7c-0.9-1.2-1.9-2.4-2.9-3.5s-1.9-2.2-2.7-3.1L15-68.5
						l0.8,0.1h9.1v-3.8h-16v2.1c0.3,0.8,0.8,1.6,1.5,2.5c0.6,0.8,1.4,1.8,2.1,2.7c0.8,0.9,1.6,1.8,2.4,2.8c0.8,0.9,1.5,1.9,2.2,2.8
						s1.2,1.8,1.7,2.7c0.5,0.8,0.6,1.6,0.6,2.4c0,1.1-0.4,2-1.1,2.5c-0.8,0.6-1.7,0.9-2.8,0.9c-0.5,0-1.1-0.1-1.9-0.2
						s-1.5-0.5-2.5-0.8l-1.2,3.2c1.2,0.5,2.2,0.9,3.2,1.1s1.9,0.3,2.7,0.3c1.4,0,2.5-0.2,3.6-0.5c1.1-0.3,2-0.8,2.8-1.3
						c0.8-0.6,1.4-1.3,1.8-2.1C24.1-52,24.4-52.9,24.4-54z"/>
					<path class="st29" d="M40.1-72.6c-2.1,0-4.1,0.3-5.8,1c-1.7,0.7-3.1,1.6-4.2,2.8c-1.1,1.2-2,2.6-2.6,4.1
						c-0.6,1.6-0.9,3.3-0.9,5.1s0.3,3.5,0.9,5.1c0.6,1.6,1.5,3,2.7,4.1c1.2,1.1,2.6,2.1,4.2,2.8c1.7,0.7,3.5,1,5.7,1
						c1,0,2-0.1,3-0.3c1-0.2,2.1-0.5,3.1-0.9L45-50.9c-1,0.3-1.9,0.5-2.6,0.6c-0.7,0.2-1.5,0.2-2.3,0.2c-1.4,0-2.6-0.3-3.6-0.8
						c-1-0.5-1.8-1.2-2.5-2.1c-0.7-0.9-1.1-1.9-1.5-3.1c-0.3-1.1-0.5-2.3-0.5-3.5s0.2-2.4,0.5-3.5c0.3-1.1,0.8-2.1,1.5-3.1
						s1.5-1.6,2.5-2.1c1-0.5,2.2-0.8,3.6-0.8c1.5,0,3.1,0.4,4.8,1.1l1.3-3.1c-1.1-0.5-2.1-0.9-3.1-1.2
						C42.1-72.4,41.1-72.6,40.1-72.6z"/>
					<path class="st29" d="M58.2-72.6c-1.5,0-3,0.2-4.2,0.7c-1.2,0.5-2.3,1.1-3.2,1.9c-0.8,0.8-1.5,1.9-2,3.2s-0.7,2.8-0.7,4.4v15.6
						H53v-16.2c0-0.9,0.2-1.8,0.4-2.5s0.6-1.4,1.1-1.9s1-0.9,1.7-1.2c0.6-0.3,1.3-0.4,2.1-0.4s1.5,0.2,2.1,0.4
						c0.6,0.3,1.2,0.7,1.7,1.2c0.5,0.5,0.8,1.1,1.1,1.9c0.2,0.8,0.4,1.6,0.4,2.5v16.2h4.9v-15.6c0-1.5-0.2-2.9-0.7-4.2
						c-0.5-1.2-1.1-2.3-2-3.2c-0.8-0.9-1.9-1.6-3.2-2.1C61.2-72.4,59.7-72.6,58.2-72.6z"/>
				</g>
			</g>
			<path class="st29" d="M-0.5-29.7c27.2,0,58.9,12.2,62.1,43.4c0.7,7-4.2,35.4-25,58.9l-18.5-24h-37.3l-18.5,24
				c-20.8-23.5-25.7-52-25-58.9C-59.4-17.5-27.6-29.7-0.5-29.7"/>
			<g>
				<path d="M1.8-9.2l4.8,7C7.6-1,7.1,0.9,5.7,1.6c-1.8,1-3.9,1.5-6.1,1.5s-4.3-0.5-6.1-1.5C-8,0.9-8.4-1-7.5-2.3l4.8-7
					C-1.6-10.9,0.7-10.9,1.8-9.2z"/>
				<g>
					<path d="M11-18.1c-5,0-9.4,2.9-11.5,7.2C-2.6-15.2-7-18.1-12-18.1c-3.1,0-6,1.1-8.4,3.1c-0.5,0.4-0.5,1.1-0.2,1.5
						c0.4,0.5,1.1,0.5,1.5,0.2c1.9-1.7,4.4-2.5,6.9-2.5c5.1,0,9.5,3.7,10.4,8.7c0.1,0.5,0.5,0.9,1.1,0.9c0.5,0,1-0.4,1.1-0.9
						c0.9-5.1,5.3-8.7,10.4-8.7c2.6,0,5.1,0.8,6.9,2.5c0.5,0.4,1.1,0.3,1.5-0.2c0.4-0.5,0.3-1.1-0.2-1.5
						C17.1-17.1,14.2-18.1,11-18.1z"/>
				</g>
				<path d="M60.6,24.8c-1.5-0.4-3-0.8-4.7-1.2c-15-3.5-35.1-5.4-56.4-5.4s-41.3,1.9-56.4,5.4c-1.7,0.4-3.2,0.8-4.7,1.2
					c-0.2-1.2-0.5-2.2-0.6-3.3c3.1-0.8,6.4-1.5,9.8-2.2c0.7-9.1,9.5-16.3,20.4-16.5c9.4-0.2,17.4,5.1,19.9,12.3
					C-8.2,15-4.4,15-0.6,15c3.1,0,6.3,0.1,9.4,0.2C11.4,7.9,19.4,2.7,28.7,2.9C39.5,3,48.2,10.1,49.1,19c4.3,0.8,8.3,1.6,11.9,2.6
					C61,22.6,60.8,23.7,60.6,24.8z"/>
			</g>
		</g>
	</g>
</symbol>
<g>
	<rect y="150" class="st0" width="100" height="100"/>
	<rect x="100" y="150" class="st0" width="100" height="100"/>
	<rect x="200" y="150" class="st0" width="100" height="100"/>
	<rect class="st0" width="400" height="150"/>
	<rect x="300" y="150" class="st0" width="100" height="100"/>
	<rect x="400" y="150" class="st0" width="100" height="100"/>
	<rect x="500" y="150" class="st0" width="100" height="100"/>
	<rect x="600" y="150" class="st0" width="100" height="100"/>
	<rect x="700" y="150" class="st0" width="100" height="100"/>
	<rect x="400" class="st0" width="400" height="150"/>
	<rect x="800" class="st0" width="400" height="150"/>
	<rect x="1200" class="st0" width="400" height="150"/>
	<g>
		<path class="st30" d="M260.5,208.9c-0.5-1.5-4.2-3.6-5.9-4.3c-0.1-0.1-0.3,0-0.4,0l-4.2,2l-3.8-2c-0.1-0.1-0.2-0.1-0.4,0
			c-1.5,0.6-5.9,2.6-6.4,4.4c-0.3,1.2-0.4,1.8-0.4,1.8c0,0,0,0.1,0,0.1c0,0.6,0.3,0.9,0.6,1c0.4,0.2,0.8,0.2,1.3,0.2
			c0.1,0,0.2,0,0.3,0h17.6c0.1,0,0.3,0,0.4,0c0.1,0,0.3,0,0.4,0c0.3,0,1.4,0,1.4-1.1C260.9,210.4,260.9,210.1,260.5,208.9z
			 M259.6,211.1c-0.1,0-0.2,0-0.3,0c-0.1,0-0.3,0-0.4,0h-17.6c-0.1,0-0.2,0-0.3,0c-0.1,0-0.2,0-0.3,0c0,0,0,0,0,0
			c-0.1,0-0.4,0-0.6-0.1c0,0-0.1,0-0.1-0.2c0-0.2,0.2-0.7,0.4-1.8c0.3-1,3.4-2.8,5.6-3.7l3.8,2c0.1,0.1,0.3,0.1,0.4,0l4.2-2
			c2.5,1.1,5,2.9,5.2,3.7c0.4,1.2,0.4,1.4,0.4,1.7C260.1,211.1,260.1,211.1,259.6,211.1z"/>
		<path class="st30" d="M245.4,199.3c0.2,0.6,0.5,1,0.8,1.5c0.1,0.1,0.2,0.3,0.2,0.4c0.3,0.5,0.6,0.8,0.9,1.1c0,0.4-0.1,1-0.2,1.4
			c-0.1,0.2,0.1,0.5,0.3,0.5c0.2,0.1,0.5-0.1,0.5-0.3c0.1-0.5,0.2-1.3,0.2-1.8c0-0.1-0.1-0.3-0.2-0.4c-0.3-0.2-0.6-0.5-0.8-1
			c-0.1-0.1-0.2-0.3-0.3-0.4c-0.3-0.5-0.6-0.9-0.8-1.5c-0.1-0.2-0.2-0.3-0.4-0.3c0,0-0.2-0.1-0.2-0.2c-0.4-0.8-0.6-2.1-0.6-2.3
			c0,0,0.1,0,0.2,0c0.1,0,0.2,0,0.3-0.1c0.1-0.1,0.1-0.2,0.1-0.3c-0.1-2.5,0.8-3.9,1.6-4.6c0.1-0.1,0.2-0.3,0.1-0.5c0,0,0,0,0,0
			c0.4-0.3,1-0.2,1-0.2l0-0.4l0.4-0.2c0-0.1,0-0.2,0.1-0.4c0.2,0.2,0.6,0.4,0.9,0.4c0.9,0.3,1.6,0.5,2,0.7c1.9,0.7,2.9,2.7,2.8,5.3
			c0,0.1,0,0.2,0.1,0.3c0.1,0.1,0.2,0.1,0.3,0.1c0.1,0,0.1,0,0.1,0c0.1,0.3-0.1,1.5-0.5,2.3c-0.1,0.1-0.2,0.2-0.2,0.2
			c-0.2,0-0.3,0.1-0.4,0.3c-0.2,0.6-0.5,1-0.8,1.5c-0.1,0.1-0.2,0.3-0.3,0.4c-0.3,0.4-0.5,0.7-0.8,0.9c-0.1,0.1-0.2,0.2-0.2,0.4
			c0,0.4,0,1.2,0.2,1.9c0.1,0.2,0.2,0.3,0.4,0.3c0,0,0.1,0,0.1,0c0.2-0.1,0.4-0.3,0.3-0.5c-0.1-0.5-0.2-1.1-0.2-1.4
			c0.3-0.3,0.5-0.6,0.8-1c0.1-0.1,0.2-0.3,0.3-0.4c0.3-0.4,0.6-0.9,0.8-1.5c0.2-0.1,0.5-0.3,0.6-0.6c0.5-0.9,0.8-2.5,0.6-3
			c-0.1-0.2-0.3-0.4-0.5-0.5c0-2.8-1.2-4.9-3.4-5.8c-0.4-0.2-1.1-0.5-2.1-0.7c-0.4-0.1-0.6-0.3-0.6-0.3c0-0.1-0.1-0.2-0.2-0.3
			c-0.1-0.1-0.2-0.1-0.3-0.1c-0.4,0.1-0.7,0.6-0.9,0.9c-0.1,0.1-0.1,0.3-0.1,0.4c-0.6,0.1-1.4,0.4-1.6,1.2c0,0.1,0,0.2,0,0.2
			c-0.8,0.9-1.5,2.2-1.5,4.4c-0.3,0.1-0.5,0.3-0.6,0.5c-0.2,0.6,0.1,2.1,0.6,3C244.9,199,245.1,199.2,245.4,199.3z"/>
	</g>
	<g>
		<path class="st30" d="M59.6,197.7l-3.3,2.3v-4.6c0-0.2-0.2-0.4-0.4-0.4H44.2c-0.2,0-0.4,0.2-0.4,0.4v4.6l-3.3-2.3
			c-0.2-0.1-0.5-0.1-0.6,0.1c-0.1,0.2-0.1,0.5,0.1,0.6l8.4,5.7c0.5,0.3,1.1,0.5,1.7,0.5c0.6,0,1.2-0.2,1.7-0.5l8.4-5.7
			c0.2-0.1,0.3-0.4,0.1-0.6C60.1,197.7,59.8,197.6,59.6,197.7z M51.2,203.5c-0.7,0.5-1.8,0.5-2.5,0l-4.2-2.9c0-0.1,0.1-0.1,0.1-0.2
			v-4.5h10.8v4.5c0,0.1,0,0.2,0.1,0.2L51.2,203.5z"/>
		<path class="st30" d="M61.4,196l-9.7-7.5c-0.5-0.4-1.1-0.5-1.7-0.5c-0.6,0-1.2,0.2-1.7,0.5l-9.7,7.5c-0.4,0.3-0.7,0.9-0.7,1.4
			v12.3c0,1.2,1,2.2,2.2,2.2h19.7c1.2,0,2.2-1,2.2-2.2v-12.3C62.1,196.9,61.8,196.3,61.4,196z M61.2,209.8c0,0.7-0.6,1.3-1.3,1.3
			H40.1c-0.7,0-1.3-0.6-1.3-1.3v-12.3c0-0.2,0.2-0.6,0.3-0.7l9.7-7.5c0.3-0.2,0.7-0.4,1.1-0.4c0.4,0,0.9,0.1,1.1,0.4l9.7,7.5
			c0.2,0.1,0.3,0.5,0.3,0.7V209.8z"/>
		<path class="st30" d="M53.1,197.7h-6.3c-0.2,0-0.4,0.2-0.4,0.4s0.2,0.4,0.4,0.4h6.3c0.2,0,0.4-0.2,0.4-0.4S53.4,197.7,53.1,197.7z
			"/>
		<path class="st30" d="M53.1,199.5h-6.3c-0.2,0-0.4,0.2-0.4,0.4c0,0.2,0.2,0.4,0.4,0.4h6.3c0.2,0,0.4-0.2,0.4-0.4
			C53.6,199.7,53.4,199.5,53.1,199.5z"/>
	</g>
	<g>
		<path class="st30" d="M162.1,207.9c-0.1-0.4-0.3-0.8-0.9-1.2l-5.4-3.7c-0.3-0.2-0.6-0.3-0.9-0.3c-0.5,0-1,0.2-1.3,0.7l-1.4,2
			c-0.1,0.2-0.1,0.3-0.1,0.5c-0.5,0.1-2.1,0-4.6-2.5c-2.5-2.4-3.6-4.2-3.5-5.4c0,0,0,0,0.1-0.1c0.1,0,0.2-0.1,0.3-0.2l1.9-1.5
			c0.7-0.5,0.8-1.5,0.3-2.2l-3.8-5.2c-0.7-1-1.6-1.1-2.5-0.3c-0.6,0.5-1.6,1.7-2,2.5c-0.2,0.4-0.3,0.8-0.3,1.2
			c-0.1,0.6-0.5,2.3,0.1,4.7c0.7,3.3,2.6,6.5,5.6,9.4c5.1,4.9,9.5,5.6,11.7,5.6h0c1.3,0,2.2-0.2,2.6-0.4c0.4,0,0.8-0.1,1.1-0.3
			c0.7-0.4,1.9-1.4,2.4-2.1C162.1,208.7,162.2,208.3,162.1,207.9z M161,208.6c-0.4,0.5-1.5,1.5-2.2,1.8c-0.1,0.1-0.2,0.1-0.3,0.1
			c-0.6-0.3-1.7-0.8-2-1.2c-0.2-0.2-0.4-0.2-0.6-0.1c-0.2,0.2-0.2,0.4-0.1,0.6c0.3,0.4,0.8,0.7,1.3,1c-0.4,0.1-1,0.2-1.7,0.2h0
			c-2.1,0-6.3-0.7-11.1-5.4c-6.9-6.7-5.6-12.7-5.4-13.3c0-0.1,0-0.1,0-0.2c0-0.2,0-0.5,0.2-0.7c0.4-0.6,1.3-1.8,1.8-2.2
			c0.2-0.2,0.4-0.3,0.6-0.3c0.1,0,0.3,0,0.6,0.5l3.8,5.2c0.2,0.3,0.2,0.8-0.1,1l-1.9,1.4c0,0,0,0,0,0c-0.5-0.4-1.2-1-1.4-1.3
			c-0.1-0.2-0.4-0.3-0.6-0.1c-0.2,0.1-0.3,0.4-0.1,0.6c0.3,0.4,1,1,1.5,1.4c-0.4,1.5,0.8,3.5,3.7,6.3c2.3,2.3,4,2.8,5,2.8
			c0.4,0,0.8-0.1,0.9-0.2c0.1-0.1,0.2-0.2,0.2-0.3c0-0.1,0-0.2,0-0.2c0-0.1,0-0.1,0-0.2l1.4-1.9c0.2-0.3,0.7-0.4,1-0.1l5.4,3.7
			c0.3,0.2,0.5,0.4,0.5,0.6C161.3,208.2,161.2,208.4,161,208.6z"/>
		<path class="st30" d="M149.5,193.2c3.5,1.1,6.3,3.8,7.3,7.3c0.1,0.2,0.2,0.3,0.4,0.3c0,0,0.1,0,0.1,0c0.2-0.1,0.4-0.3,0.3-0.6
			c-1.2-3.8-4.1-6.7-7.9-7.9c-0.2-0.1-0.5,0.1-0.6,0.3C149.1,192.9,149.2,193.2,149.5,193.2z"/>
		<path class="st30" d="M150.1,189.9c5.3,1.2,9.3,5.5,10.2,10.8c0,0.2,0.2,0.4,0.4,0.4c0,0,0.1,0,0.1,0c0.2,0,0.4-0.3,0.4-0.5
			c-1-5.7-5.3-10.2-10.9-11.5c-0.2-0.1-0.5,0.1-0.5,0.3C149.7,189.6,149.9,189.8,150.1,189.9z"/>
	</g>
	<path class="st29" d="M350,179.7c-11.2,0-20.3,9.1-20.3,20.3s9.1,20.3,20.3,20.3c11.2,0,20.3-9.1,20.3-20.3S361.2,179.7,350,179.7z
		 M355.4,212.4c-1.7-0.1-13-2.8-17.7-16.2c-1-2.8,0.2-7.3,3.4-8.4c3.3-1.1,4.9,3.5,5.4,6.4l-2.8,2.8c0,0-0.1,1.8,3.8,5.7
		c3.9,3.9,5.7,3.8,5.7,3.8l3.3-3.3c2.1,0.4,6.3,3.1,6.3,3.1C362.2,210.2,359.5,212.8,355.4,212.4z"/>
	<g>
		<g>
			<path class="st31" d="M1460.1,45.5c3.7-1.8,6.2-4.3,7.5-7.5c1.6,3.4,4,6,7.5,7.5c-3.4,1.6-6,4.1-7.5,7.5
				C1466.2,49.9,1463.9,47.2,1460.1,45.5L1460.1,45.5z"/>
			<path class="st31" d="M1434.9,52.3c4.3-2.1,7.2-5,8.8-8.8c1.9,3.9,4.7,7,8.8,8.8c-4,1.8-7,4.7-8.8,8.8
				C1442,57.5,1439.4,54.4,1434.9,52.3L1434.9,52.3z"/>
			<path class="st31" d="M1450.5,75.8c6.1-3,10.2-7.2,12.5-12.5c2.7,5.6,6.6,10,12.5,12.5c-5.7,2.6-9.9,6.7-12.5,12.5
				C1460.6,83.1,1456.8,78.8,1450.5,75.8L1450.5,75.8z"/>
			<path class="st31" d="M1339,44.4c5.3-2.5,8.8-6.2,10.8-10.8c2.3,4.8,5.7,8.6,10.8,10.8c-4.9,2.3-8.5,5.8-10.8,10.8
				C1347.7,50.7,1344.5,47,1339,44.4L1339,44.4z"/>
			<path class="st31" d="M1335.6,84.1c5.3-2.5,8.8-6.2,10.8-10.8c2.3,4.8,5.7,8.6,10.8,10.8c-4.9,2.3-8.5,5.8-10.8,10.8
				C1344.3,90.4,1341.1,86.7,1335.6,84.1L1335.6,84.1z"/>
			<path class="st31" d="M1364.1,31.5c3.2-1.6,5.4-3.7,6.6-6.6c1.4,2.9,3.5,5.3,6.6,6.6c-3,1.4-5.2,3.5-6.6,6.6
				C1369.4,35.3,1367.4,33,1364.1,31.5L1364.1,31.5z"/>
			<path class="st31" d="M1324.5,61.8c3.8,1.8,6.1,4.5,7.6,7.6c1.6-3.5,4.1-6,7.6-7.6c-3.5-1.5-5.9-4.2-7.6-7.6
				C1330.7,57.5,1328.2,60.1,1324.5,61.8L1324.5,61.8z"/>
		</g>
		<path class="st32" d="M1440.2,113.6v-37h7v-8.5l-45.1-20.7l-14.9,6.8v-6.7h-13v12.7l-17,7.8c0,3.4,0,4.5,0,8.5h8v37h-11v11h96v-11
			H1440.2z M1411.2,101.6h-18v-19h18V101.6z"/>
	</g>
	<g>
		<path class="st33" d="M1043,38.3c-25.9,2.7-43-13.3-43-13.3s-17.1,16-43,13.3c0,0-8,72.3,43,86.7C1051,110.6,1043,38.3,1043,38.3z
			 M1000.3,116.5l-0.3,0.1l-0.3-0.1c-32.3-11-35.3-52-35.1-69.1l0-0.8l0.8,0c15.2-0.6,26.9-6.4,34.1-11.2l0.5-0.3l0.5,0.3
			c7.2,4.8,18.9,10.6,34.1,11.2l0.8,0l0,0.8C1035.6,64.6,1032.5,105.5,1000.3,116.5z"/>
		<g>
			<path class="st30" d="M1011.4,69.2l-3.7,3.7c3,3,8.9,8.8,13.6,13.5l3.7-3.7C1020.2,78,1014.3,72.1,1011.4,69.2 M1010.4,68.2
				c3-3.1,5.4-6.4,5.4-10.1c0-5.6-4.6-9-9.1-9c-4.5,0-9.3,3.2-9.3,9.1c0,3.5,1.9,6.3,4.4,9l3.8-3.7c-1.7-1.8-2.9-3.6-2.9-5.3
				c0-3,2.5-3.8,4-3.8c1.5,0,3.8,1,3.8,3.7c0,1.9-1.7,4.2-3.9,6.4c0,0-5,5.1-5.8,5.9l3.8,3.8C1005.4,73.4,1010.4,68.2,1010.4,68.2"
				/>
			<path class="st30" d="M991.9,77.1c-3.2-3.1-13.1-13-13.2-13.1l-3.7,3.8c0.1,0.1,9.6,9.5,13.2,13L991.9,77.1z M993,85.5l5.9-5.9
				l-3.8-3.8L989,82c-2.9,3-5.2,6.3-5.2,9.9c0,5.6,4.6,9,9.1,9c4.5,0,9.3-3.2,9.3-9.1c0-3.5-2-6.3-4.5-9l-3.7,3.7
				c1.7,1.8,2.9,3.6,2.9,5.3c0,3-2.5,3.8-4,3.8c-1.5,0-3.8-1-3.8-3.7C989.1,90,990.8,87.7,993,85.5C993,85.5,993,85.5,993,85.5"/>
			<path class="st33" d="M984.9,79.5l-3.8-3.7l-6.2,6.1l3.7,3.8L984.9,79.5z M1012.6,79.8l-3.7-3.7l-2.1,2l-13.8-13.9l-6.1,6
				l3.7,3.7l2.3-2.3l13.8,13.9L1012.6,79.8z M1025,67.9l-3.7-3.8l-6.7,6.5l3.7,3.7L1025,67.9z"/>
		</g>
	</g>
	<g>
		<path class="st29" d="M256.1,46.5h-7.6c-0.5,4.3-1.1,8.6-1.7,13c-1.1,8-4.5,15.4-13.8,15.4h-7.4l-0.9-7.6h1.9
			c5.6,0,10.3-3.2,11.1-9c0.5-3.9,1.1-8,1.6-11.9h-7.7c-0.4,3.5-0.8,7-1.2,10.5c-0.3,2.5-1.1,5.4-4.1,5.4h-2.2l-1.7-15.9h-7.8
			l4.3,35.1h15.7c12.9,0,18.3-11,19.8-22.2L256.1,46.5z M206.9,81.6V46.5h-36.5v6.7h6.5v19c0,1.4-0.7,2.7-2.2,2.7h-4.9v6.7h6.3
			c5.2,0,8.8-3.5,8.8-8.8V53.2h14v28.4H206.9z M163,65.4V46.5h-14v6.7h6v12.2H163z"/>
		<path class="st29" d="M142.8,81.6V46.5h-14v6.7h6v28.4H142.8z M123.7,46.5h-8l-1.2,12.4c-0.3,3.1-0.9,13-3.3,15.2
			c-0.7,0.6-1.5,0.8-2.3,0.8h-1.5l-6.9-28.4h-8.2l7.2,28.4h-6.4v6.7h15.4c13.1,0,13.5-13.3,14.3-23.1L123.7,46.5z M85.4,81.6V58.3
			c0-8.6-5-11.8-13.2-11.8H59.9v6.7h11.8c4.3,0,5.7,1.3,5.7,5.6v22.8H85.4z M56,81.6v-6.7H51V46.5H26.6v6.7H43v21.7H26.6v6.7H56z"/>
		<path class="st29" d="M233.2,95.1h-2.8v2.8h2.8V95.1z M233.2,88.4h-2.8v2.7h2.8V88.4z M192.7,88.4h-2.7v2.7h2.7V88.4z"/>
		<path class="st29" d="M144.9,91.1v-2.7h-11.8v2.7h4.4l-0.1,6.7h3.1l-0.2-6.7H144.9z M102.5,88.4h-2.8v2.7h2.8V88.4z M109.1,88.4
			h-2.8v2.7h2.8V88.4z M81.9,95.1h-2.7v2.7h2.7V95.1z M78.5,88.4h-2.7v2.7h2.7V88.4z M85.2,88.4h-2.8v2.7h2.8V88.4z"/>
		<path class="st29" d="M347.1,63.8l-7.2,7.2c5.7,5.7,17.1,17.1,26.3,26.2l7.2-7.3C364.2,80.8,352.8,69.5,347.1,63.8 M345.2,61.9
			c5.8-6,10.4-12.4,10.4-19.6c0-10.8-8.9-17.3-17.6-17.3c-8.7,0-17.9,6.2-17.9,17.6c0,6.8,3.7,12.2,8.6,17.3l7.4-7.1
			c-3.3-3.6-5.7-6.9-5.7-10.2c0-5.8,4.8-7.4,7.7-7.4c3,0,7.4,1.9,7.4,7.1c0,3.7-3.3,8.1-7.5,12.4c0,0-9.6,9.8-11.1,11.4l7.4,7.3
			C335.6,71.9,345.2,61.9,345.2,61.9"/>
		<path class="st29" d="M309.5,79.1c-6.1-6.1-25.4-25.1-25.6-25.3l-7.2,7.3c0.2,0.2,18.6,18.3,25.5,25.2L309.5,79.1z M311.5,95.3
			L323,83.9l-7.3-7.3l-12,12c-5.6,5.9-10,12.1-10,19.1c0,10.8,8.9,17.3,17.6,17.3c8.7,0,17.9-6.2,17.9-17.6c0-6.9-3.8-12.3-8.7-17.5
			l-7.2,7.2c3.3,3.6,5.7,6.9,5.7,10.2c0,5.8-4.8,7.4-7.7,7.4c-3,0-7.4-1.9-7.4-7.1C304,104,307.3,99.6,311.5,95.3
			C311.5,95.3,311.5,95.3,311.5,95.3"/>
		<path class="st29" d="M296,83.7l-7.3-7.2l-11.9,11.7l7.2,7.3L296,83.7z M349.5,84.3l-7.2-7.2l-4.1,3.9l-26.7-26.9l-11.8,11.6
			l7.2,7.2l4.4-4.4L338,95.3L349.5,84.3z M373.4,61.2l-7.1-7.4l-12.9,12.5l7.2,7.2L373.4,61.2z"/>
		<path class="st29" d="M254.7,125v-8.9c0-3.2-1.8-5-5.1-5H242v1.5h2.8l-2.2,12.4h1.7l2.2-12.4h3.1c2.1,0,3.3,1.1,3.3,3.2v7.8h-4.3
			v1.4H254.7z M237.9,125v-13.9h-4.2v1.5h2.4V125H237.9z M229.9,125v-8.9c0-3.2-1.8-5-5.1-5h-7.7v1.5h2.8l-2.2,12.4h1.7l2.2-12.4
			h3.1c2.1,0,3.3,1.1,3.3,3.2v7.8h-4.3v1.4H229.9z M213.1,125v-9.5c0-3-1.5-4.4-4.5-4.4h-6.7V125h1.8v-12.4h4.7
			c2.3,0,2.9,1.1,2.9,3.2v9.2H213.1z M197.3,118.6v-7.5h-4.2v1.5h2.4v6H197.3z M187.7,123.6h-7.9v-11h5c2.3,0,3,1.1,3,3.2V123.6z
			 M189.5,125v-9.5c0-3-1.5-4.4-4.5-4.4H178V125H189.5z M167.9,111.1h-8.6v-3.9h-1.8v5.3h8l-4.9,12.4h1.9L167.9,111.1z M154.6,116.3
			c0-2.9-1.7-5.5-4.9-5.5c-0.5,0-2.1,0.1-2.5,0.4v1.4c0.5-0.4,1.8-0.5,2.4-0.5c2.2,0,3.2,2.2,3.2,4.2c0,3.7-1.9,7.3-6,7.3h-1.8
			l-1.2-12.5h-1.8l1.3,13.9h3.8C152,125,154.6,120.7,154.6,116.3 M138.1,118.6v-7.5H134v1.5h2.4v6H138.1z M130.4,125v-8.9
			c0-3.2-1.8-5-5.1-5h-5.6v7.1h1.8v-5.7h3.9c2.1,0,3.2,1.1,3.2,3.2v7.8h-8.9v1.4H130.4z M115.1,125v-13.9h-4.2v1.5h2.4V125H115.1z
			 M108.3,111.1h-8.6v-3.9h-1.8v5.3h8L101,125h1.9L108.3,111.1z M88.6,125v-1.4h-2v-12.5h-8.8v1.4h7v11h-7v1.4H88.6z M75.2,125v-1.4
			h-2v-12.5h-8.8v1.4h7v11h-7v1.4H75.2z M61.8,112.5v-1.4h-11v1.4H58V125h1.8v-12.5H61.8z M47.7,118.6v-7.5h-4.2v1.5h2.4v6H47.7z
			 M38.1,123.6h-7.9v-11h5c2.3,0,3,1.1,3,3.2V123.6z M39.9,125v-9.5c0-3-1.5-4.4-4.5-4.4h-6.9V125H39.9z"/>
	</g>
	<g id="XMLID_3_">
		<g>
			<path class="st33" d="M682.5,206.2c0.5,2.3,1.5,8.2,1.5,8.2s-0.2,2.2-12.6,2.2c-1.5,0-2.8,0-4-0.1c0.2-0.2,0.2-0.4,0.2-0.4
				s-1.3-7.6-1.9-10.6c-0.4-1.8-0.8-3.1-1.3-4c0.2,0,0.5-0.1,0.7-0.1l6.3,11.6l6.3-11.6c1.3,0.2,2.4,0.3,2.7,0.6
				C681.5,202.6,682,203.9,682.5,206.2z"/>
			<path class="st33" d="M677.1,193.3c0,0.9,0,1.8-1.2,2.3c-1.2,0.5-1.1,4.7-4.3,4.9h-1c-3.2-0.2-3.1-4.4-4.3-4.9
				c-1.2-0.5-1.2-1.4-1.2-2.3c0-0.9,0.9,0,0.9,0s0,0-0.1-1.4c-0.1-1.4-0.1-1.4,0-3.4c0.1-2.1,4.6-2.7,4.6-2.7h1c0,0,4.5,0.6,4.6,2.7
				c0.1,2.1,0.1,2.1,0,3.4c-0.1,1.4-0.1,1.4-0.1,1.4S677.1,192.4,677.1,193.3z"/>
			<polygon class="st33" points="671.2,202.8 673.4,206.8 671.4,210 669.1,206.8 			"/>
			<path class="st33" d="M664.5,206.5c0.6,3,1.9,10.6,1.9,10.6s-0.3,2.8-16.4,2.8c-16.1,0-16.4-2.8-16.4-2.8s1.3-7.6,1.9-10.6
				c0.6-3,1.3-4.6,2.7-5.5c0.4-0.3,1.8-0.5,3.5-0.7l8.2,15.1l8.2-15.1c1.7,0.2,3.1,0.4,3.5,0.7C663.2,201.9,663.9,203.5,664.5,206.5
				z"/>
			<path class="st33" d="M657.5,189.8c0,1.2,0,2.3-1.5,3c-1.5,0.7-1.4,6.1-5.5,6.4h-1.3c-4.1-0.3-4-5.7-5.5-6.4
				c-1.5-0.7-1.5-1.8-1.5-3c0-1.2,1.1,0,1.1,0s0,0-0.1-1.8c-0.1-1.8-0.1-1.8,0-4.5c0.1-2.7,6-3.5,6-3.5h1.3c0,0,5.9,0.8,6,3.5
				c0.1,2.7,0.1,2.7,0,4.5c-0.1,1.8-0.1,1.8-0.1,1.8S657.5,188.5,657.5,189.8z"/>
			<polygon class="st33" points="649.9,202 652.7,207.3 650,211.5 647.1,207.3 			"/>
			<path class="st33" d="M635,201.4c0.2,0,0.5,0.1,0.7,0.1c-0.5,1-1,2.2-1.3,4c-0.6,3-1.9,10.6-1.9,10.6s0,0.2,0.2,0.4
				c-1.2,0.1-2.5,0.1-4,0.1c-12.4,0-12.6-2.2-12.6-2.2s1-5.9,1.5-8.2c0.5-2.3,1-3.6,2.1-4.3c0.3-0.2,1.4-0.4,2.7-0.6l6.3,11.6
				L635,201.4z"/>
			<path class="st33" d="M634.6,193.3c0,0.9,0,1.8-1.2,2.3c-1.2,0.5-1.1,4.7-4.3,4.9h-1c-3.2-0.2-3.1-4.4-4.3-4.9
				c-1.2-0.5-1.2-1.4-1.2-2.3c0-0.9,0.9,0,0.9,0s0,0-0.1-1.4c-0.1-1.4-0.1-1.4,0-3.4c0.1-2.1,4.6-2.7,4.6-2.7h1c0,0,4.5,0.6,4.6,2.7
				c0.1,2.1,0.1,2.1,0,3.4c-0.1,1.4-0.1,1.4-0.1,1.4S634.6,192.4,634.6,193.3z"/>
			<polygon class="st33" points="628.8,202.8 630.9,206.8 628.6,210 626.6,206.8 			"/>
		</g>
	</g>
	<g>
		<path class="st32" d="M570,188c-0.2,1.7-1,8.1-1.7,8.9c-0.4,0.5-1.1,0.8-1.9,1.1c-1.3,0.4-1.7,1.1-1.8,2.5l-1.3,17
			c0,1.1,0.9,2.5,2,2.5h12.4c1.1,0,2-1.4,2-2.5l-3.8-29.5c0.4-0.2,2.2-0.9,2.9-1.3c0.5-0.3,0.5-0.5,0.4-1c0-0.3-0.1-0.6-0.1-0.9
			c-0.6-3.3-4.3-3.5-7.6-3.5l-7.4,0v3.7C566.1,185.2,569.4,185.8,570,188L570,188z M569.3,187.8c-1.4,2-3.3,4-4.7,5.2l-1.5-0.9
			l3.5-6.1C567.6,186.4,568.7,186.9,569.3,187.8L569.3,187.8z M561.3,180.8h2.2c0,1.4,0,2.6,0,4.1h-2.2V180.8L561.3,180.8z
			 M574.3,192.4l1.5,11.8h-9.3l0.3-3.5c0-0.1,0-0.4,0.1-0.6c0.1,0,0.2-0.1,0.3-0.1c1.1-0.4,2.1-0.8,2.8-1.7c0.9-1.1,1.3-4.2,1.6-5.6
			l0-0.3H574.3L574.3,192.4z M560.2,183.6l-7.6,2.4c-0.3,0.1-0.6-0.1-0.7-0.4s0.1-0.6,0.4-0.7l4.8-1.4h-5.4c-0.3,0-0.5-0.2-0.5-0.5
			c0-0.3,0.2-0.5,0.5-0.5h5.7l-5-1.4c-0.3-0.1-0.4-0.4-0.4-0.7c0.1-0.3,0.4-0.4,0.7-0.4l7.6,2.3
			C560.7,182.4,560.7,183.4,560.2,183.6z"/>
		<path class="st32" d="M530.2,189.2h6.7v-4.8h-16.7v4.8h6.7V220h3.3V189.2L530.2,189.2z M534.7,183.8h1.7V180h-1.7V183.8
			L534.7,183.8z M531.9,183.8h1.7V180h-1.7V183.8L531.9,183.8z M529.1,183.8h1.7V180h-1.7V183.8L529.1,183.8z M526.4,183.8h1.7V180
			h-1.7V183.8L526.4,183.8z M523.6,183.8h1.7V180h-1.7V183.8L523.6,183.8z M520.8,183.8h1.7V180h-1.7V183.8z"/>
		<g>
			<path class="st32" d="M547,214.9c-1.6-0.8-2.7-2.5-2.7-4.5c-0.4,0.6-0.6,1.2-0.6,1.9c0,1.7,0.9,3.1,2.3,3.8
				c1.2,0.6,2.7,0.6,3.9,0c0.5-0.2,0.9-0.6,1.2-1C549.8,215.6,548.3,215.5,547,214.9z"/>
			<path class="st32" d="M559.1,195.2c-2-4.8-5.9-6.9-10.9-6.9c-5.1,0-9,2.1-10.9,6.9c-1.1,2.7-1.3,5.7-1,8.5
				c0.1,0.4,0.3,0.7,0.8,0.8l2,0.2l0.9,13.7c0,0.6,0.5,1.1,1.2,1.1h14.1c0.6,0,1.1-0.4,1.2-1.1l0.9-13.8l1.9-0.2
				c0.4-0.1,0.7-0.4,0.8-0.8C560.4,200.9,560.2,197.9,559.1,195.2z M550.8,217c-1.6,0.8-3.5,0.8-5.1,0c-1.8-0.9-3-2.8-3-5
				c0-0.9,0.4-1.8,1-2.7c1.2-1.8,2.7-3.6,3.9-5.4c0.6-0.9,0.8-0.9,1.4,0c1.2,1.9,2.8,3.6,3.9,5.4c0.6,0.9,1,1.8,1,2.7
				C553.8,214.2,552.6,216,550.8,217z M558.9,203l-0.7,0.1v-0.6l1-0.4v-2.5h-20v2.5l1,0.4v0.6l-1.7-0.1c-0.2-2.4-0.3-4.9,0.6-7.1
				c1.7-4.1,4.9-5.9,9.2-5.9c4.4,0,7.8,1.7,9.5,5.9C558.7,198.1,559.1,200.6,558.9,203z"/>
		</g>
	</g>
	<g>
		<g>
			<path class="st33" d="M423.2,190.5c0,0.4,1.2,1,1.9,1.7l3.1,2.9c1.4,1.4,2,2.5,2.3,4.5h18.1c0.3,0,1.6,0.9,1.6,1v-19
				c0-0.1-0.3-0.6-0.3-0.7c-0.1-0.5-0.9-1.3-1.5-1.3h-25c-0.6,0-0.2,1.4-0.2,2V190.5z M435.9,193.9c-0.3-0.5-0.5-1.1-0.5-1.8
				c0-0.6,0.2-1.2,0.5-1.8c0.3,0.5,0.5,1.1,0.5,1.8C436.4,192.8,436.2,193.4,435.9,193.9z M439.1,188.4c0.6,0,1.2,0.2,1.8,0.5
				c-0.5,0.3-1.1,0.5-1.8,0.5c-0.6,0-1.3-0.2-1.8-0.5C437.9,188.6,438.5,188.4,439.1,188.4z M435.9,183.9c0.3,0.5,0.5,1.1,0.5,1.8
				c0,0.6-0.2,1.3-0.5,1.8c-0.3-0.5-0.5-1.1-0.5-1.8C435.4,185,435.6,184.4,435.9,183.9z M435.9,188.1c0.4,0,0.8,0.3,0.8,0.8
				c0,0.4-0.3,0.8-0.8,0.8c-0.4,0-0.8-0.3-0.8-0.8C435.1,188.5,435.5,188.1,435.9,188.1z M432.7,188.4c0.6,0,1.2,0.2,1.8,0.5
				c-0.5,0.3-1.1,0.5-1.8,0.5c-0.6,0-1.2-0.2-1.8-0.5C431.4,188.6,432,188.4,432.7,188.4z"/>
			<path class="st33" d="M450.2,210.6v-8.1c0-0.4-0.4-1-0.2-1.3c-0.2-0.2-1.1-0.5-1.4-0.5h-18c0.2,2-0.2,4.1-1.3,5.9l0.1,0.4l-0.2,0
				l-0.1,0.2l-0.1-0.3c-2.7-0.7-5.7-2-7.7-4v7.8h27.2H450.2z"/>
			<rect x="415.2" y="216.6" class="st33" width="6" height="3"/>
			<path class="st33" d="M449.2,216.6v-5h-29v-9.3c0-0.4-0.9-0.9-1.3-1.3c-1.6-1.6-2.9-3.4-3.9-5.4h-5.9v21H449.2z"/>
			<path class="st33" d="M414.5,191.1c3.2,0.9,6.4,2.9,9,5.5c2.7,2.7,4.6,5.9,5.5,9.2c1.7-3.2,1.1-7.2-1.5-9.8l-3.3-3.3
				C421.6,190.1,417.7,189.5,414.5,191.1z"/>
			<path class="st33" d="M419.4,200.7c2.6,2.6,5.8,4.5,9,5.4c-0.9-3.2-2.8-6.4-5.4-9c-2.6-2.6-5.8-4.5-9-5.4
				C414.9,194.9,416.8,198.1,419.4,200.7z"/>
			<path class="st33" d="M451.2,199.6h18.1c0.3-2,1.2-3.1,2.5-4.5l3.2-3.1c0.7-0.7,2.3-1.1,2.3-1.5v-8.8c0-0.6-0.3-2-0.9-2h-25
				c-0.6,0-1.1,1.4-1.1,2v19C451.2,200.5,450.8,199.6,451.2,199.6z M463.8,193.9c-0.3-0.5-0.5-1.1-0.5-1.8c0-0.6,0.2-1.2,0.5-1.8
				c0.3,0.5,0.5,1.1,0.5,1.8C464.3,192.8,464.1,193.4,463.8,193.9z M467,188.4c0.6,0,1.2,0.2,1.8,0.5c-0.5,0.3-1.1,0.5-1.8,0.5
				c-0.6,0-1.2-0.2-1.8-0.5C465.8,188.6,466.4,188.4,467,188.4z M463.8,183.9c0.3,0.5,0.5,1.1,0.5,1.8c0,0.6-0.2,1.3-0.5,1.8
				c-0.3-0.5-0.5-1.1-0.5-1.8C463.3,185,463.5,184.4,463.8,183.9z M463.8,188.1c0.4,0,0.8,0.3,0.8,0.8c0,0.4-0.3,0.8-0.8,0.8
				c-0.4,0-0.8-0.3-0.8-0.8C463,188.5,463.4,188.1,463.8,188.1z M460.6,188.4c0.6,0,1.3,0.2,1.8,0.5c-0.5,0.3-1.1,0.5-1.8,0.5
				c-0.6,0-1.2-0.2-1.8-0.5C459.3,188.6,459.9,188.4,460.6,188.4z"/>
			<path class="st33" d="M451.3,210.6h27.9v-7.8c-2,1.9-5.3,3.3-8.1,4l-0.3,0.3l-0.2-0.2l-0.2,0l0.1-0.5c-1.1-1.8-1.5-3.9-1.3-5.9
				h-18c-0.8,0-1,1.1-1,1.9v8.1H451.3z"/>
			<rect x="479.2" y="216.6" class="st33" width="6" height="3"/>
			<path class="st33" d="M480.6,201c-0.4,0.4-0.4,1-1.4,1.3v9.3h-28.6h-0.4v5h0.4h40.6v-21h-6.5C483.7,197.6,482.2,199.4,480.6,201z
				"/>
			<path class="st33" d="M475.6,192.7l-3.3,3.3c-2.6,2.6-3.2,6.6-1.5,9.8c0.9-3.3,2.9-6.5,5.5-9.2c2.6-2.6,5.8-4.5,9-5.5
				c-1.2-0.6-2.5-0.9-3.8-0.9C479.3,190.2,477.2,191,475.6,192.7z"/>
			<path class="st33" d="M476.7,197.1c-2.6,2.6-4.5,5.8-5.4,9c3.2-0.9,6.4-2.8,9-5.4c2.6-2.6,4.5-5.8,5.4-9
				C482.5,192.6,479.3,194.5,476.7,197.1z"/>
		</g>
	</g>
	<g>
		<path class="st30" d="M656.1,46.5h-7.6c-0.5,4.3-1.1,8.6-1.7,13c-1.1,8-4.5,15.4-13.8,15.4h-7.4l-0.9-7.6h1.9
			c5.6,0,10.3-3.2,11.1-9c0.5-3.9,1.1-8,1.6-11.9h-7.7c-0.4,3.5-0.8,7-1.2,10.5c-0.3,2.5-1.1,5.4-4.1,5.4h-2.2l-1.7-15.9h-7.8
			l4.3,35.1h15.7c12.9,0,18.3-11,19.8-22.2L656.1,46.5z M606.9,81.6V46.5h-36.5v6.7h6.5v19c0,1.4-0.7,2.7-2.2,2.7h-4.9v6.7h6.3
			c5.2,0,8.8-3.5,8.8-8.8V53.2h14v28.4H606.9z M563,65.4V46.5h-14v6.7h6v12.2H563z"/>
		<path class="st33" d="M542.8,81.6V46.5h-14v6.7h6v28.4H542.8z M523.7,46.5h-8l-1.2,12.4c-0.3,3.1-0.9,13-3.3,15.2
			c-0.7,0.6-1.5,0.8-2.3,0.8h-1.5l-6.9-28.4h-8.2l7.2,28.4h-6.4v6.7h15.4c13.1,0,13.5-13.3,14.3-23.1L523.7,46.5z M485.4,81.6V58.3
			c0-8.6-5-11.8-13.2-11.8h-12.3v6.7h11.8c4.3,0,5.7,1.3,5.7,5.6v22.8H485.4z M456,81.6v-6.7H451V46.5h-24.5v6.7H443v21.7h-16.4v6.7
			H456z"/>
		<path class="st30" d="M633.2,95.1h-2.8v2.8h2.8V95.1z M633.2,88.4h-2.8v2.7h2.8V88.4z M592.7,88.4h-2.7v2.7h2.7V88.4z"/>
		<path class="st33" d="M544.9,91.1v-2.7h-11.8v2.7h4.4l-0.1,6.7h3.1l-0.2-6.7H544.9z M502.5,88.4h-2.8v2.7h2.8V88.4z M509.1,88.4
			h-2.8v2.7h2.8V88.4z M481.9,95.1h-2.7v2.7h2.7V95.1z M478.5,88.4h-2.7v2.7h2.7V88.4z M485.2,88.4h-2.8v2.7h2.8V88.4z"/>
		<path class="st30" d="M747.1,63.8l-7.2,7.2c5.7,5.7,17.1,17.1,26.3,26.2l7.2-7.3C764.2,80.8,752.8,69.5,747.1,63.8 M745.2,61.9
			c5.8-6,10.4-12.4,10.4-19.6c0-10.8-8.9-17.3-17.6-17.3c-8.7,0-17.9,6.2-17.9,17.6c0,6.8,3.7,12.2,8.6,17.3l7.4-7.1
			c-3.3-3.6-5.7-6.9-5.7-10.2c0-5.8,4.8-7.4,7.7-7.4c3,0,7.4,1.9,7.4,7.1c0,3.7-3.3,8.1-7.5,12.4c0,0-9.6,9.8-11.1,11.4l7.4,7.3
			C735.6,71.9,745.2,61.9,745.2,61.9"/>
		<path class="st30" d="M709.5,79.1c-6.1-6.1-25.4-25.1-25.6-25.3l-7.2,7.3c0.2,0.2,18.6,18.3,25.5,25.2L709.5,79.1z M711.5,95.3
			L723,83.9l-7.3-7.3l-12,12c-5.6,5.9-10,12.1-10,19.1c0,10.8,8.9,17.3,17.6,17.3c8.7,0,17.9-6.2,17.9-17.6c0-6.9-3.8-12.3-8.7-17.5
			l-7.2,7.2c3.3,3.6,5.7,6.9,5.7,10.2c0,5.8-4.8,7.4-7.7,7.4c-3,0-7.4-1.9-7.4-7.1C704,104,707.3,99.6,711.5,95.3
			C711.5,95.3,711.5,95.3,711.5,95.3"/>
		<path class="st33" d="M696,83.7l-7.3-7.2l-11.9,11.7l7.2,7.3L696,83.7z M749.5,84.3l-7.2-7.2l-4.1,3.9l-26.7-26.9l-11.8,11.6
			l7.2,7.2l4.4-4.4L738,95.3L749.5,84.3z M773.4,61.2l-7.1-7.4l-12.9,12.5l7.2,7.2L773.4,61.2z"/>
		<path class="st30" d="M654.7,125v-8.9c0-3.2-1.8-5-5.1-5H642v1.5h2.8l-2.2,12.4h1.7l2.2-12.4h3.1c2.1,0,3.3,1.1,3.3,3.2v7.8h-4.3
			v1.4H654.7z M637.9,125v-13.9h-4.2v1.5h2.4V125H637.9z M629.9,125v-8.9c0-3.2-1.8-5-5.1-5h-7.7v1.5h2.8l-2.2,12.4h1.7l2.2-12.4
			h3.1c2.1,0,3.3,1.1,3.3,3.2v7.8h-4.3v1.4H629.9z M613.1,125v-9.5c0-3-1.5-4.4-4.5-4.4h-6.7V125h1.8v-12.4h4.7
			c2.3,0,2.9,1.1,2.9,3.2v9.2H613.1z M597.3,118.6v-7.5h-4.2v1.5h2.4v6H597.3z M587.7,123.6h-7.9v-11h5c2.3,0,3,1.1,3,3.2V123.6z
			 M589.5,125v-9.5c0-3-1.5-4.4-4.5-4.4H578V125H589.5z M567.9,111.1h-8.6v-3.9h-1.8v5.3h8l-4.9,12.4h1.9L567.9,111.1z M554.6,116.3
			c0-2.9-1.7-5.5-4.9-5.5c-0.5,0-2.1,0.1-2.5,0.4v1.4c0.5-0.4,1.8-0.5,2.4-0.5c2.2,0,3.2,2.2,3.2,4.2c0,3.7-1.9,7.3-6,7.3h-1.8
			l-1.2-12.5h-1.8l1.3,13.9h3.8C552,125,554.6,120.7,554.6,116.3 M538.1,118.6v-7.5H534v1.5h2.4v6H538.1z M530.4,125v-8.9
			c0-3.2-1.8-5-5.1-5h-5.6v7.1h1.8v-5.7h3.9c2.1,0,3.2,1.1,3.2,3.2v7.8h-8.9v1.4H530.4z M515.1,125v-13.9h-4.2v1.5h2.4V125H515.1z
			 M508.3,111.1h-8.6v-3.9h-1.8v5.3h8L501,125h1.9L508.3,111.1z M488.6,125v-1.4h-2v-12.5h-8.8v1.4h7v11h-7v1.4H488.6z M475.2,125
			v-1.4h-2v-12.5h-8.8v1.4h7v11h-7v1.4H475.2z M461.8,112.5v-1.4h-11v1.4h7.3V125h1.8v-12.5H461.8z M447.7,118.6v-7.5h-4.2v1.5h2.4
			v6H447.7z M438.1,123.6h-7.9v-11h5c2.3,0,3,1.1,3,3.2V123.6z M439.9,125v-9.5c0-3-1.5-4.4-4.5-4.4h-6.9V125H439.9z"/>
	</g>
	
		<use xlink:href="#New_Symbol_3"  width="239" height="276.1" x="-119.5" y="-138" transform="matrix(0.1811 0 0 -0.1811 750 200)" style="overflow:visible;"/>
</g>
</svg>
